<svg width="22" height="16" viewBox="0 0 22 16" fill="none" xmlns="http://www.w3.org/2000/svg">
<path d="M22 11.8208C22 5.59434 17.05 0.5 11 0.5C4.95 0.5 0 5.59434 0 11.8208C0 13.0943 0.275 14.3679 0.55 15.5H21.3125C21.725 14.3679 22 13.0943 22 11.8208ZM10.175 2.90566C10.175 2.48113 10.5875 2.0566 11 2.0566C11.4125 2.0566 11.825 2.48113 11.825 2.90566V4.46226C11.825 4.88679 11.4125 5.31132 11 5.31132C10.5875 5.31132 10.175 4.88679 10.175 4.46226V2.90566ZM5.5 8.56604C5.3625 8.99057 4.8125 9.13208 4.5375 8.84906L3.1625 8C2.75 7.85849 2.6125 7.29245 2.8875 7.00943C3.1625 6.58491 3.575 6.4434 3.9875 6.72641L5.3625 7.57547C5.6375 7.71698 5.775 8.14151 5.5 8.56604ZM7.8375 6.16038C7.425 6.4434 7.0125 6.30189 6.7375 5.87736L5.9125 4.46226C5.775 4.17924 5.9125 3.61321 6.325 3.4717C6.6 3.18868 7.15 3.33019 7.425 3.75472L8.25 5.16981C8.3875 5.45283 8.25 6.01887 7.8375 6.16038ZM11.1375 14.2264C9.9 14.2264 8.8 13.0943 8.8 11.8208C8.8 10.5472 9.9 9.41509 11.1375 9.41509C11.4125 9.41509 11.825 9.41509 12.1 9.5566L16.775 4.74528C17.05 4.46226 17.6 4.46226 17.875 4.74528C18.15 5.0283 18.15 5.59434 17.875 5.87736L13.2 10.6887C13.475 10.9717 13.475 11.3962 13.475 11.8208C13.475 13.0943 12.5125 14.2264 11.1375 14.2264ZM19.6625 12.6698H18.15C17.7375 12.6698 17.325 12.2453 17.325 11.8208C17.325 11.3962 17.7375 10.9717 18.15 10.9717H19.6625C20.075 10.9717 20.4875 11.3962 20.4875 11.8208C20.4875 12.2453 20.075 12.6698 19.6625 12.6698Z" fill="#F9ECCB"/>
</svg>
