<svg width="25" height="24" viewBox="0 0 25 24" fill="none" xmlns="http://www.w3.org/2000/svg">
<circle cx="12.5" cy="8" r="3" stroke="#F9ECCB" stroke-width="2" stroke-linecap="round"/>
<path d="M15.7679 8C16.0332 7.54063 16.47 7.20543 16.9824 7.06815C17.4947 6.93086 18.0406 7.00273 18.5 7.26795C18.9594 7.53317 19.2946 7.97 19.4319 8.48236C19.5691 8.99472 19.4973 9.54063 19.2321 10C18.9668 10.4594 18.53 10.7946 18.0176 10.9319C17.5053 11.0691 16.9594 10.9973 16.5 10.7321C16.0406 10.4668 15.7054 10.03 15.5681 9.51764C15.4309 9.00528 15.5027 8.45937 15.7679 8L15.7679 8Z" stroke="#F9ECCB" stroke-width="2"/>
<path d="M5.76795 8C6.03317 7.54063 6.47 7.20543 6.98236 7.06815C7.49472 6.93086 8.04063 7.00273 8.5 7.26795C8.95937 7.53317 9.29457 7.97 9.43185 8.48236C9.56914 8.99472 9.49727 9.54063 9.23205 10C8.96683 10.4594 8.53 10.7946 8.01764 10.9319C7.50528 11.0691 6.95937 10.9973 6.5 10.7321C6.04063 10.4668 5.70543 10.03 5.56815 9.51764C5.43086 9.00528 5.50273 8.45937 5.76795 8L5.76795 8Z" stroke="#F9ECCB" stroke-width="2"/>
<path d="M17.3816 18L16.4012 18.1974L16.5629 19H17.3816V18ZM21.2201 16.9042L22.1626 16.5699L21.2201 16.9042ZM15.2808 14.7105L14.6759 13.9142L13.5193 14.7927L14.7526 15.5597L15.2808 14.7105ZM20.3672 17H17.3816V19H20.3672V17ZM20.2777 17.2384C20.2706 17.2186 20.2641 17.181 20.2725 17.1354C20.2803 17.0921 20.2982 17.0593 20.3151 17.0383C20.3473 16.9982 20.3739 17 20.3672 17V19C21.5132 19 22.6413 17.9194 22.1626 16.5699L20.2777 17.2384ZM17.5 15C19.1415 15 19.9026 16.1811 20.2777 17.2384L22.1626 16.5699C21.6976 15.2588 20.4485 13 17.5 13V15ZM15.8856 15.5069C16.2701 15.2148 16.7819 15 17.5 15V13C16.3381 13 15.4027 13.3622 14.6759 13.9142L15.8856 15.5069ZM14.7526 15.5597C15.7918 16.206 16.227 17.3324 16.4012 18.1974L18.3619 17.8026C18.1439 16.7204 17.5374 14.9364 15.8089 13.8614L14.7526 15.5597Z" fill="#F9ECCB"/>
<path d="M9.71924 14.7105L10.2474 15.5597L11.4807 14.7927L10.3241 13.9142L9.71924 14.7105ZM3.77986 16.9041L4.72233 17.2384L4.72233 17.2384L3.77986 16.9041ZM7.61841 18V19H8.43709L8.59873 18.1974L7.61841 18ZM7.50008 15C8.21809 15 8.72992 15.2148 9.11439 15.5069L10.3241 13.9142C9.59729 13.3621 8.66196 13 7.50008 13V15ZM4.72233 17.2384C5.09738 16.1811 5.85849 15 7.50008 15V13C4.55157 13 3.30244 15.2587 2.83739 16.5699L4.72233 17.2384ZM4.63284 17C4.62606 17 4.6527 16.9982 4.68492 17.0383C4.70182 17.0593 4.71967 17.0921 4.72754 17.1354C4.73586 17.181 4.72937 17.2186 4.72233 17.2384L2.83739 16.5699C2.3587 17.9194 3.48683 19 4.63284 19V17ZM7.61841 17H4.63284V19H7.61841V17ZM8.59873 18.1974C8.77295 17.3324 9.2082 16.206 10.2474 15.5597L9.19112 13.8614C7.46263 14.9363 6.85606 16.7203 6.6381 17.8026L8.59873 18.1974Z" fill="#F9ECCB"/>
<path d="M12.5 14C16.0715 14 17.0919 16.5512 17.3834 18.0089C17.4917 18.5504 17.0523 19 16.5 19H8.5C7.94772 19 7.50829 18.5504 7.61659 18.0089C7.9081 16.5512 8.92846 14 12.5 14Z" stroke="#F9ECCB" stroke-width="2" stroke-linecap="round"/>
</svg>
