<svg width="20" height="20" viewBox="0 0 20 20" fill="none" xmlns="http://www.w3.org/2000/svg">
<path fill-rule="evenodd" clip-rule="evenodd" d="M2.85714 0C2.09938 0 1.37266 0.301019 0.836838 0.836838C0.301019 1.37266 0 2.09938 0 2.85714V17.1429C0 17.9006 0.301019 18.6273 0.836838 19.1632C1.37266 19.699 2.09938 20 2.85714 20H17.1429C17.9006 20 18.6273 19.699 19.1632 19.1632C19.699 18.6273 20 17.9006 20 17.1429V2.85714C20 2.09938 19.699 1.37266 19.1632 0.836838C18.6273 0.301019 17.9006 0 17.1429 0H2.85714ZM15.7143 5.71429C15.7143 5.33541 15.5638 4.97204 15.2959 4.70413C15.028 4.43622 14.6646 4.28571 14.2857 4.28571C13.9068 4.28571 13.5435 4.43622 13.2756 4.70413C13.0077 4.97204 12.8571 5.33541 12.8571 5.71429V14.2857C12.8571 14.6646 13.0077 15.028 13.2756 15.2959C13.5435 15.5638 13.9068 15.7143 14.2857 15.7143C14.6646 15.7143 15.028 15.5638 15.2959 15.2959C15.5638 15.028 15.7143 14.6646 15.7143 14.2857V5.71429ZM11.4286 8.57143C11.4286 8.19255 11.2781 7.82919 11.0102 7.56128C10.7422 7.29337 10.3789 7.14286 10 7.14286C9.62112 7.14286 9.25776 7.29337 8.98985 7.56128C8.72194 7.82919 8.57143 8.19255 8.57143 8.57143V14.2857C8.57143 14.6646 8.72194 15.028 8.98985 15.2959C9.25776 15.5638 9.62112 15.7143 10 15.7143C10.3789 15.7143 10.7422 15.5638 11.0102 15.2959C11.2781 15.028 11.4286 14.6646 11.4286 14.2857V8.57143ZM7.14286 12.8571C7.14286 12.4783 6.99235 12.1149 6.72444 11.847C6.45653 11.5791 6.09317 11.4286 5.71429 11.4286C5.33541 11.4286 4.97204 11.5791 4.70413 11.847C4.43622 12.1149 4.28571 12.4783 4.28571 12.8571V14.2857C4.28571 14.6646 4.43622 15.028 4.70413 15.2959C4.97204 15.5638 5.33541 15.7143 5.71429 15.7143C6.09317 15.7143 6.45653 15.5638 6.72444 15.2959C6.99235 15.028 7.14286 14.6646 7.14286 14.2857V12.8571Z" fill="black"/>
</svg>
