<svg width="20" height="20" viewBox="0 0 20 20" fill="none" xmlns="http://www.w3.org/2000/svg">
<path d="M3.33333 4.76837e-07V11.6667H0V4.76837e-07H3.33333Z" fill="#F9ECCB"/>
<path fill-rule="evenodd" clip-rule="evenodd" d="M8.33333 14.6066L6.66667 11.2732V1.66667H15.6366L18.3333 7.06011V10.8333C18.3333 11.2936 17.9602 11.6667 17.5 11.6667H10V17.5C10 17.9602 9.6269 18.3333 9.16667 18.3333H8.33333V14.6066ZM6.66667 20H9.16667C10.5474 20 11.6667 18.8807 11.6667 17.5V13.3333H17.5C18.8807 13.3333 20 12.214 20 10.8333V6.66667L16.6667 4.76837e-07H5V11.6667L6.66667 15V20Z" fill="#F9ECCB"/>
</svg>
